<svg xmlns="http://www.w3.org/2000/svg" xmlns:xlink="http://www.w3.org/1999/xlink" width="87.52631498043559" height="22.78947356863364" version="1.1" preserveAspectRatio="xMidYMid"><rect id="backgroundrect" width="100%" height="100%" x="0" y="0" fill="none" stroke="none" class="" style=""/>
    
<g class="currentLayer" style=""><title>Layer 1</title><g id="svg_1" class="" fill="#ffffff" fill-opacity="1">
        <path d="M23.761148665260528,5.7230093641455255 L24.382526231182744,6.133893951556672 C25.463177849340475,6.929983105757913 26.08455541526269,7.8287939389962276 26.219633792838984,8.85600647189267 C27.38133432966152,8.650564178187096 28.86723243326231,8.804645366281989 29.515623782580754,9.215529953693135 L29.515623782580754,9.215529953693135 L30.10998188874965,9.549374479241123 L30.001913510331526,9.754816772946697 C29.812801889605687,10.14002133973679 29.75877053857517,10.242743550958153 29.73175107882185,10.294103592200258 C28.67811702829841,12.220126426150728 26.597860818528723,12.24580644677178 25.625273794551056,12.220126426150728 C23.1667886669726,17.844115868644394 17.925624629275497,20.951431359217622 10.847351137803123,20.951431359217622 C7.578377769636127,20.951431359217622 5.092876966542413,20.00125888818434 3.417865586611633,18.12659715984455 C1.2025280428296696,15.66128750664052 1.2025280428296696,12.45124980484593 1.3916421469617362,11.424037271949487 L1.3916421469617362,11.424037271949487 L1.4456749170815257,11.218593913875338 L20.97846975514188,11.218593913875338 C22.005090022269094,11.218593913875338 22.78856353340189,10.96179157892766 23.1667886669726,10.756349285222086 C22.761544073648572,10.191382445347472 22.62646569607228,9.549374479241123 22.59944812843799,9.189849933072082 C22.518399209773186,8.16263740017564 22.78856353340189,7.084064826037093 23.32888650430221,6.313656224641193 L23.32888650430221,6.313656224641193 L23.761148665260528,5.7230093641455255 zM40.68554412936408,6.915435316067999 C40.9034935362314,6.915435316067999 41.08800163135641,6.982161114250289 41.2390797674533,7.1156153715363075 C41.39015411931212,7.249069628822326 41.465691295241534,7.41758099387954 41.465691295241534,7.62115372418225 L41.465691295241534,13.97263057308055 C41.465691295241534,15.031215369739812 41.05952523994973,15.926926229501987 40.247174208175814,16.659791890318616 C39.4249273938732,17.401706812764132 38.444181552636685,17.772658419959726 37.304917763275974,17.772658419959726 C36.15574683867238,17.772658419959726 35.175000997435866,17.401706812764132 34.36265374990001,16.659791890318616 C33.55031028660222,15.91787909661025 33.14414423131041,15.022168236848074 33.14414423131041,13.97263057308055 C33.14414423131041,12.923092909313027 33.55031028660222,12.027382049550852 34.36265374990001,11.285467127105335 C35.175000997435866,10.543553269028394 36.15574683867238,10.1726016618328 37.304917763275974,10.1726016618328 C38.29062474061005,10.1726016618328 39.15992477095927,10.450815899413783 39.912832991275884,11.007250760787201 L39.912832991275884,7.62115372418225 C39.912832991275884,7.41758099387954 39.985887707037485,7.249069628822326 40.13201227551293,7.1156153715363075 C40.27813684398837,6.982161114250289 40.46264493911338,6.915435316067999 40.68554412936408,6.915435316067999 zM46.51092451522744,10.1726016618328 C47.65019208882621,10.1726016618328 48.63093793006272,10.543553269028394 49.45318474436534,11.285467127105335 C49.859362152371325,11.656425120512381 50.16274830193482,12.065827042497858 50.36335833000806,12.51369098732755 C50.563968358081304,12.96155280342009 50.666748263809616,13.447861741196789 50.67170561566912,13.97263057308055 C50.67170561566912,15.031215369739812 50.26553956037731,15.926926229501987 49.45318474436534,16.659791890318616 C48.63093793006272,17.401706812764132 47.65019208882621,17.772658419959726 46.51092451522744,17.772658419959726 C45.36175359062384,17.772658419959726 44.38101531786345,17.401706812764132 43.568664286089536,16.659791890318616 C42.75631703855368,15.91787909661025 42.35015098326188,15.022168236848074 42.35015098326188,13.97263057308055 C42.35015098326188,12.923092909313027 42.75631703855368,12.027382049550852 43.568664286089536,11.285467127105335 C44.38101531786345,10.543553269028394 45.36175359062384,10.1726016618328 46.51092451522744,10.1726016618328 zM55.702078132790696,10.1726016618328 C56.74722792158207,10.1726016618328 57.65119157256721,10.480220145680505 58.414010712364764,11.095465628324519 C58.59233157826055,11.240229333909497 58.68148822697038,11.41891978783849 58.68148822697038,11.631542311954377 C58.68148822697038,11.835115574441375 58.60842594273266,12.004757831110055 58.462305158495276,12.14047333943472 C58.31618059001983,12.276189912127961 58.13167249489482,12.344046601921718 57.908765736168,12.344046601921718 C57.72054151926739,12.344046601921718 57.55213535709061,12.289761675834143 57.40353589692348,12.181188630553265 C57.15091530094413,11.986662500958005 56.88591646226826,11.839639140887243 56.60853559665782,11.740113228498103 C56.33113959409514,11.640588380477539 56.028994674615554,11.590825956467256 55.702078132790696,11.590825956467256 C55.340479049139624,11.590825956467256 55.00118048038019,11.65302978475654 54.68417107379822,11.777435312597959 C54.367157882978184,11.901840840439377 54.089780801605805,12.071484161476633 53.85201334001466,12.286367404446878 C53.61425344689963,12.501252776154274 53.42727046008293,12.753453845750073 53.29105681108843,13.042980192551454 C53.15483937785587,13.332506539352835 53.08673444547765,13.642388935160625 53.08673444547765,13.97263057308055 C53.08673444547765,14.302872211000476 53.15483937785587,14.612752478071116 53.29105681108843,14.902279889241072 C53.42727046008293,15.191807300411028 53.61425344689963,15.444009434375403 53.85201334001466,15.658892677345648 C54.089780801605805,15.873775920315893 54.367157882978184,16.043418176984574 54.68417107379822,16.167824769194567 C55.00118048038019,16.29223136140456 55.340479049139624,16.354433060956694 55.702078132790696,16.354433060956694 C56.028994674615554,16.354433060956694 56.33113959409514,16.305803125110742 56.60853559665782,16.208536867207386 C56.88591646226826,16.11127699551548 57.14843662501438,15.9653839948719 57.396103653372286,15.77085786527664 C57.5347997625346,15.675856583701943 57.698256141327995,15.626094159691661 57.8864803582286,15.621570593245792 C58.1093795484793,15.621570593245792 58.293887643604315,15.68829692361237 58.44001221207976,15.821751713082676 C58.5861367805552,15.955204373815832 58.6591914963168,16.123716271057333 58.6591914963168,16.327290597912906 C58.6591914963168,16.526340293954036 58.57746709115816,16.700506117068585 58.414010712364764,16.849795517836583 C57.646241789183826,17.46503993611202 56.74227056972257,17.772658419959726 55.702078132790696,17.772658419959726 C54.55290342394904,17.772658419959726 53.57216136695059,17.401706812764132 52.759814119414735,16.659791890318616 C51.94747065611694,15.91787909661025 51.541300816587075,15.022168236848074 51.541300816587075,13.97263057308055 C51.541300816587075,12.923092909313027 51.94747065611694,12.027382049550852 52.759814119414735,11.285467127105335 C53.57216136695059,10.543553269028394 54.55290342394904,10.1726016618328 55.702078132790696,10.1726016618328 zM60.3386704057931,6.915435316067999 C60.5516548923248,6.915435316067999 60.73369566423424,6.984422897473223 60.88476244761694,7.122400721205111 C61.03584436795189,7.260378544936998 61.11137397540518,7.428890442178499 61.11137397540518,7.627940138219628 L61.11137397540518,12.92083644793297 L65.5544932933168,10.281174707113678 C65.67832869961478,10.208792322136901 65.81701345606291,10.1726016618328 65.97056269961342,10.1726016618328 C66.07954875576127,10.1726016618328 66.18107986292955,10.190698056353426 66.27519386349888,10.226888716657527 C66.36930786406822,10.263079376961628 66.45103226922686,10.31397216039909 66.52038221592704,10.379568131338488 C66.58973216262723,10.445164102277886 66.64545885230893,10.520938629904776 66.68755471649604,10.606890649850584 C66.72966571763538,10.692844798533542 66.75070608125282,10.783321449293794 66.75070608125282,10.878320602131339 C66.75070608125282,11.131657352997195 66.6516422973001,11.319396004186501 66.45351472939467,11.441539748804985 L63.34035830943606,13.287268746156997 L66.53523913455331,16.571577022781298 C66.67889637981318,16.716341792734852 66.75070608125282,16.88145941858909 66.75070608125282,17.066940544029762 C66.75070608125282,17.16193863249873 66.72966571763538,17.25241634762756 66.68755471649604,17.338370496310517 C66.64545885230893,17.424322516256325 66.58973216262723,17.50009597951464 66.52038221592704,17.565693014822614 C66.45103226922686,17.631288985762012 66.36930786406822,17.6821807048309 66.27519386349888,17.71837349387215 C66.18107986292955,17.75456415417625 66.07954875576127,17.772658419959726 65.97056269961342,17.772658419959726 C65.76253556494123,17.772658419959726 65.58917205090495,17.71158707983477 65.45047215750458,17.589442270847712 L62.01783143927231,14.067630790286671 L61.11137397540518,14.610491759216757 L61.11137397540518,17.06015306562381 C61.11137397540518,17.254680259587644 61.03584436795189,17.42206073303339 60.88476244761694,17.5623008721725 C60.73369566423424,17.702537818205883 60.5516548923248,17.772658419959726 60.3386704057931,17.772658419959726 C60.12071721468772,17.772658419959726 59.93620533532465,17.702537818205883 59.78513098346583,17.5623008721725 C59.634056631607,17.42206073303339 59.55852323991565,17.254680259587644 59.55852323991565,17.06015306562381 L59.55852323991565,7.627940138219628 C59.55852323991565,7.428890442178499 59.634056631607,7.260378544936998 59.78513098346583,7.122400721205111 C59.93620533532465,6.984422897473223 60.12071721468772,6.915435316067999 60.3386704057931,6.915435316067999 zM71.75137232959798,10.1726016618328 C72.89063233472064,10.1726016618328 73.87137817595715,10.543553269028394 74.69363255873589,11.285467127105335 C75.09979482978963,11.651900489697937 75.40442599367509,12.060174180993386 75.60751848191614,12.51029778030886 C75.81059583320496,12.960422443992911 75.91214207732548,13.447861741196789 75.91214207732548,13.97263057308055 C75.91214207732548,14.176203835567549 75.83660868563413,14.34471573280905 75.68553433377531,14.47816945791078 C75.53445241344036,14.611623183012512 75.34994053407729,14.67834951337909 75.1319986956861,14.67834951337909 L69.24747823741029,14.67834951337909 C69.33168510273674,14.927162697799076 69.4555129405586,15.154482023205446 69.618969319352,15.36031919765253 C69.7824256981454,15.566153178993886 69.97436982105967,15.742582914068521 70.19479411961868,15.889608402876434 C70.41521841817769,16.03663282731577 70.65792431043803,16.150859798469696 70.92292693335196,16.232288251969635 C71.18792955626589,16.313718834206725 71.46407297603048,16.354433060956694 71.75137232959798,16.354433060956694 C72.07828508718478,16.354433060956694 72.37796646768686,16.309195267760856 72.65039376567586,16.218718617000604 C72.92282106366486,16.128240901871777 73.1754416596442,15.992528586652838 73.40824798513779,15.811572092026609 C73.55684744530492,15.698475480299862 73.72773606764952,15.639664859029267 73.92091385217157,15.635142356951974 C74.14381304242227,15.635142356951974 74.32832492178534,15.701868687318552 74.47444949026078,15.835323476788858 C74.6205664902601,15.968776137522013 74.69363255873589,16.137288034763515 74.69363255873589,16.340861297250513 C74.69363255873589,16.53991099329164 74.61933282865232,16.709555378697473 74.47073336848518,16.849795517836583 C73.70296444530425,17.46503993611202 72.7965183341513,17.772658419959726 71.75137232959798,17.772658419959726 C70.6021900522802,17.772658419959726 69.62145177951982,17.401706812764132 68.80911210046008,16.659791890318616 C67.99676485292423,15.91787909661025 67.59059501339436,15.022168236848074 67.59059501339436,13.97263057308055 C67.59059501339436,12.923092909313027 67.99676485292423,12.027382049550852 68.80911210046008,11.285467127105335 C69.62145177951982,10.543553269028394 70.6021900522802,10.1726016618328 71.75137232959798,10.1726016618328 zM80.9276576758208,10.1726016618328 C81.14560708268812,10.1726016618328 81.37964706978948,10.186173425538982 81.62978520560102,10.213316952951345 C81.87993090988869,10.240460480363708 82.11025477521446,10.289091480578236 82.32077193853058,10.359211017963503 C82.53129667032283,10.42933055534877 82.7058938459669,10.52546113198207 82.84457860241503,10.647604876600553 C82.9832784958154,10.769749685587612 83.05262844251558,10.928083026141621 83.05262844251558,11.122609155736882 C83.05262844251558,11.222134003757446 83.03157294194591,11.314872437740632 82.98946950928269,11.400825522055015 C82.94736607661946,11.486778606369398 82.89164695541388,11.562552069627714 82.82229700871369,11.628149104935687 C82.7529470620135,11.693745075875086 82.67122265685487,11.744637859312547 82.57710865628553,11.780829583985224 C82.4829946557162,11.817019179920749 82.38144841159567,11.835114510072799 82.27247749240007,11.835114510072799 C82.17837106030686,11.835114510072799 82.06939257263514,11.81023276588337 81.94556473481327,11.760471406241663 C81.63350132737662,11.647374794514917 81.29420654285525,11.590825956467256 80.9276576758208,11.590825956467256 C80.56606616064585,11.590825956467256 80.22677137612447,11.65302978475654 79.90975818530444,11.777435312597959 C79.5927449944844,11.901840840439377 79.31659400624369,12.071484161476633 79.08131278905842,12.286367404446878 C78.84603157187314,12.501252776154274 78.66028603090228,12.753453845750073 78.5240610291936,13.042980192551454 C78.38785116443717,13.332506539352835 78.31974244782089,13.642388935160625 78.31974244782089,13.97263057308055 L78.31974244782089,17.066940544029762 C78.31974244782089,17.261466673625023 78.24420905612953,17.42771465890644 78.09313470427071,17.565693014822614 C77.94206035241189,17.703670306370213 77.7600233647405,17.772658419959726 77.54703130973269,17.772658419959726 C77.32908947134149,17.772658419959726 77.14457759197842,17.703670306370213 76.99349567164347,17.565693014822614 C76.84242131978465,17.42771465890644 76.7668879280933,17.261466673625023 76.7668879280933,17.066940544029762 L76.7668879280933,10.878320602131339 C76.7668879280933,10.683795536904654 76.84242131978465,10.517545422886087 76.99349567164347,10.379568131338488 C77.14457759197842,10.241590839790888 77.32908947134149,10.1726016618328 77.54703130973269,10.1726016618328 C77.7600233647405,10.1726016618328 77.94206035241189,10.241590839790888 78.09313470427071,10.379568131338488 C78.24420905612953,10.517545422886087 78.31974244782089,10.683795536904654 78.31974244782089,10.878320602131339 L78.31974244782089,11.01403717482458 C78.69124866671484,10.742604029438098 79.0949360460769,10.534510393610958 79.53082729133541,10.38974668802598 C79.96671853659393,10.244982982441002 80.43232361910498,10.1726016618328 80.9276576758208,10.1726016618328 zM37.304917763275974,11.590825956467256 C36.93837268047958,11.590825956467256 36.5965954357904,11.65416014418372 36.279586029208424,11.780829583985224 C35.96256905415033,11.907495830681 35.68766686446964,12.078270575514011 35.454856754737996,12.293153818484257 C35.22205042924441,12.508037061454502 35.0375423341194,12.760239195418876 34.9013286851249,13.049765542220257 C34.76510746765428,13.339294017758789 34.69700253527606,13.646911437237918 34.69700253527606,13.97263057308055 C34.69700253527606,14.298348644554608 34.76510746765428,14.605967128402312 34.9013286851249,14.895495603940844 C35.0375423341194,15.185021950742225 35.22205042924441,15.4372240847066 35.454856754737996,15.652105198939694 C35.68766686446964,15.866989506278514 35.96256905415033,16.037764251111525 36.279586029208424,16.164431562175878 C36.5965954357904,16.291099937608806 36.93837268047958,16.354433060956694 37.304917763275974,16.354433060956694 C37.666509278450924,16.354433060956694 38.00581163144842,16.291099937608806 38.32282103803039,16.164431562175878 C38.639838013088486,16.037764251111525 38.91597764861502,15.86585808248276 39.151258865800294,15.64871305628958 C39.38654386722363,15.4315680300964 39.572289408194486,15.179365896132026 39.708506841427045,14.89210133255358 C39.844720490421544,14.604835704606558 39.912832991275884,14.298348644554608 39.912832991275884,13.97263057308055 C39.912832991275884,13.646911437237918 39.844720490421544,13.340424377185968 39.708506841427045,13.053159813607522 C39.572289408194486,12.765893121291924 39.38654386722363,12.513692051696125 39.151258865800294,12.29654596113437 C38.91597764861502,12.07940093494119 38.639838013088486,11.907495830681 38.32282103803039,11.780829583985224 C38.00581163144842,11.65416014418372 37.666509278450924,11.590825956467256 37.304917763275974,11.590825956467256 zM46.51092451522744,11.590825956467256 C46.144383216669105,11.590825956467256 45.80260597197992,11.65416014418372 45.48558899692183,11.780829583985224 C45.16857580610179,11.907495830681 44.89366983218304,12.078270575514011 44.66087107516558,12.293153818484257 C44.428060965433936,12.508037061454502 44.243552870308925,12.760239195418876 44.107339221314426,13.049765542220257 C43.971118003843806,13.339294017758789 43.903009287227526,13.646911437237918 43.903009287227526,13.97263057308055 C43.903009287227526,14.298348644554608 43.971118003843806,14.605967128402312 44.107339221314426,14.895495603940844 C44.243552870308925,15.185021950742225 44.428060965433936,15.4372240847066 44.66087107516558,15.652105198939694 C44.89366983218304,15.866989506278514 45.16857580610179,16.037764251111525 45.48558899692183,16.164431562175878 C45.80260597197992,16.291099937608806 46.144383216669105,16.354433060956694 46.51092451522744,16.354433060956694 C46.87251981464045,16.354433060956694 47.21181838339988,16.291099937608806 47.528831574219915,16.164431562175878 C47.84584098080189,16.037764251111525 48.12198440056648,15.86585808248276 48.35726940198982,15.64871305628958 C48.59255440341315,15.4315680300964 48.77829994438401,15.179365896132026 48.91451359337851,14.89210133255358 C49.05073102661107,14.604835704606558 49.11883974322735,14.298348644554608 49.11883974322735,13.97263057308055 C49.11883974322735,13.646911437237918 49.05073102661107,13.340424377185968 48.91451359337851,13.053159813607522 C48.77829994438401,12.765893121291924 48.59255440341315,12.513692051696125 48.35726940198982,12.29654596113437 C48.12198440056648,12.07940093494119 47.84584098080189,11.907495830681 47.528831574219915,11.780829583985224 C47.21181838339988,11.65416014418372 46.87251981464045,11.590825956467256 46.51092451522744,11.590825956467256 zM71.75137232959798,11.590825956467256 C71.46902275941386,11.590825956467256 71.1941281382093,11.631542311954377 70.92664305512756,11.712970765454315 C70.65915797204582,11.794399218954254 70.41397718809378,11.90862619010818 70.19107799784308,12.055651678916092 C69.9681863760685,12.202677167724005 69.77500102307033,12.379105838430064 69.61154464427693,12.584940884139996 C69.44808826548353,12.790776994218504 69.32672775087724,13.018098448362025 69.24747823741029,13.266911632782012 L74.25526642178568,13.266911632782012 C74.17105955645923,13.018098448362025 74.04598292007734,12.790776994218504 73.88004408111613,12.584940884139996 C73.71410524215491,12.379105838430064 73.52094259458511,12.202677167724005 73.3005182960261,12.055651678916092 C73.08008642899097,11.90862619010818 72.8373729682545,11.794399218954254 72.5723779138167,11.712970765454315 C72.30737529090277,11.631542311954377 72.03370676282987,11.590825956467256 71.75137232959798,11.590825956467256 zM6.524741353963897,8.136957911738875 L6.524741353963897,10.704988179611405 L3.5529470388813493,10.704988179611405 L3.5529470388813493,8.136957911738875 L6.524741353963897,8.136957911738875 zM10.036862897214583,8.136957911738875 L10.036862897214583,10.704988179611405 L7.065068109102278,10.704988179611405 L7.065068109102278,8.136957911738875 L10.036862897214583,8.136957911738875 zM13.548983021375996,8.136957911738875 L13.548983021375996,10.704988179611405 L10.577188706293448,10.704988179611405 L10.577188706293448,8.136957911738875 L13.548983021375996,8.136957911738875 zM17.061105983715954,8.136957911738875 L17.061105983715954,10.704988179611405 L14.089309776514376,10.704988179611405 L14.089309776514376,8.136957911738875 L17.061105983715954,8.136957911738875 zM20.573225161817852,8.136957911738875 L20.573225161817852,10.704988179611405 L17.601430846735305,10.704988179611405 L17.601430846735305,8.136957911738875 L20.573225161817852,8.136957911738875 zM17.061105983715954,5.055320845233837 L17.061105983715954,7.623351645290654 L14.089309776514376,7.623351645290654 L14.089309776514376,5.055320845233837 L17.061105983715954,5.055320845233837 zM13.548983021375996,5.055320845233837 L13.548983021375996,7.623351645290654 L10.577188706293448,7.623351645290654 L10.577188706293448,5.055320845233837 L13.548983021375996,5.055320845233837 zM10.036862897214583,5.055320845233837 L10.036862897214583,7.623351645290654 L7.065068109102278,7.623351645290654 L7.065068109102278,5.055320845233837 L10.036862897214583,5.055320845233837 zM17.061105983715954,1.973684310913086 L17.061105983715954,4.541714578785616 L14.089309776514376,4.541714578785616 L14.089309776514376,1.973684310913086 L17.061105983715954,1.973684310913086 z" fill="#ffffff" id="svg_2" transform="" fill-opacity="1"/>
    </g></g></svg>