<svg xmlns="http://www.w3.org/2000/svg" xmlns:xlink="http://www.w3.org/1999/xlink" width="251.68421019609605" height="64.15789458824327" version="1.1" preserveAspectRatio="xMidYMid" style=""><rect id="backgroundrect" width="100%" height="100%" x="0" y="0" fill="none" stroke="none" class="" style=""/>
    
<g class="currentLayer" style=""><title>Layer 1</title><g id="svg_1" class="selected" stroke="#ffffff" stroke-opacity="1" fill="#ffffff" fill-opacity="1">
        <path d="M74.3567047602362,17.47697803431899 L76.17842155926905,18.671282767517226 C79.34661725257297,20.9852480879824 81.16833405160583,23.59778999217278 81.5643576581922,26.583551024317075 C84.97016888357052,25.986399458569252 89.32643539663354,26.434264334157064 91.22735281261589,27.628567465652708 L91.22735281261589,27.628567465652708 L92.96986899469925,28.598941362759632 L92.65304600506238,29.196094530210047 C92.09860748335109,30.315751914071797 91.9402062494521,30.61433170120219 91.86099195127667,30.763616789659608 C88.77200371553522,36.361919725994284 82.67322102038884,36.43656547362818 79.8218483167218,36.361919725994284 C72.6141954187658,52.70897006622087 57.24844117578209,61.740894105179876 36.49674057295579,61.740894105179876 C26.91294432532834,61.740894105179876 19.62608910026961,58.979065510829486 14.7153840654953,53.53005086635741 C8.220577763762549,46.36422567057318 8.220577763762549,37.03371864107859 8.775012865167355,34.047956007231704 L8.775012865167355,34.047956007231704 L8.93342179475593,33.450806043186475 L66.19859657459551,33.450806043186475 C69.20838419338747,33.450806043186475 71.50532521595619,32.704364583873456 72.6141954187658,32.10721141642304 C71.4261245990067,30.465043409339586 71.03010099242033,28.598941362759632 70.95089353485787,27.553924921424 C70.71327800278345,24.56816228757711 71.50532521595619,21.433111361867617 73.08941964230166,19.193790187333747 L73.08941964230166,19.193790187333747 L74.3567047602362,17.47697803431899 zM123.97472837488863,20.942961537830428 C124.61368266982595,20.942961537830428 125.15462466215035,21.1369101030875 125.59752698940997,21.524816843817206 C126.04045667912146,21.912721982844317 126.2619010021383,22.402530644229245 126.2619010021383,22.99425083648495 L126.2619010021383,41.455865736293816 C126.2619010021383,44.53281329874764 125.07112814025663,47.13634882925882 122.68954137281548,49.26654280274144 C120.27890936271001,51.423039936202684 117.40362187610503,52.50127408760997 114.063583144419,52.50127408760997 C110.69449917006864,52.50127408760997 107.81921168346366,51.423039936202684 105.43762491602251,49.26654280274144 C103.05602446735543,47.11005207609057 101.86525844608673,44.50651654557939 101.86525844608673,41.455865736293816 C101.86525844608673,38.40521172360306 103.05602446735543,35.80167619309188 105.43762491602251,33.64518226303582 C107.81921168346366,31.488685129574577 110.69449917006864,30.410454181572476 114.063583144419,30.410454181572476 C116.95342745542098,30.410454181572476 119.5019799041977,31.219124990020163 121.70932257810477,32.83650184437258 L121.70932257810477,22.99425083648495 C121.70932257810477,22.402530644229245 121.92351585137499,21.912721982844317 122.35190239791541,21.524816843817206 C122.78031630690771,21.1369101030875 123.32123093678024,20.942961537830428 123.97472837488863,20.942961537830428 zM141.05326265538156,30.410454181572476 C144.39327402461572,30.410454181572476 147.26857519244663,31.488685129574577 149.6792072025521,33.64518226303582 C150.87000742688565,34.72342922806385 151.75946496873007,35.9134269829901 152.34760719053725,37.21521396867681 C152.93573573111848,38.51700095436351 153.23705105115573,39.93053872994844 153.25158051310086,41.455865736293816 C153.25158051310086,44.53281329874764 152.0608076512192,47.13634882925882 149.6792072025521,49.26654280274144 C147.26857519244663,51.423039936202684 144.39327402461572,52.50127408760997 141.05326265538156,52.50127408760997 C137.68416499980526,52.50127408760997 134.80889119442622,51.423039936202684 132.42729074575914,49.26654280274144 C130.045703978318,47.11005207609057 128.85491743521038,44.50651654557939 128.85491743521038,41.455865736293816 C128.85491743521038,38.40521172360306 130.045703978318,35.80167619309188 132.42729074575914,33.64518226303582 C134.80889119442622,31.488685129574577 137.68416499980526,30.410454181572476 141.05326265538156,30.410454181572476 zM167.99935378050873,30.410454181572476 C171.06346954749665,30.410454181572476 173.71368718621147,31.304598247181247 175.95006142155694,33.09290880223509 C176.4728484270629,33.51369209038418 176.73422824858994,34.03308580036034 176.73422824858994,34.6511027457843 C176.73422824858994,35.24282614144519 176.52003497531973,35.735916691442725 176.09163474755337,36.130396819613196 C175.66324820101295,36.52488015118885 175.12231988991448,36.7221170118689 174.4688224518061,36.7221170118689 C173.9169902036358,36.7221170118689 173.4232621220201,36.564326882643826 172.98759716328118,36.248743420788486 C172.2469913596317,35.68331998170103 171.47007558234532,35.25596971292154 170.65684983142205,34.96668620763964 C169.84362408049878,34.67739949895255 168.9578057447536,34.53275614460901 167.99935378050873,34.53275614460901 C166.93925030755167,34.53275614460901 165.94451573212177,34.71355953668714 165.01513637299308,35.07516632084341 C164.08571597018658,35.43677310499967 163.2725175817152,35.92986685840239 162.57544543899735,36.554466801482675 C161.87840065873138,37.17906033775259 161.33022129788628,37.91212437701071 160.93086631278425,38.75368134309335 C160.5315113276822,39.59524151258117 160.33184751635713,40.495958965630706 160.33184751635713,41.455865736293816 C160.33184751635713,42.415766100146556 160.5315113276822,43.31648355319609 160.93086631278425,44.158043722683914 C161.33022129788628,44.999603892171734 161.87840065873138,45.73266793142986 162.57544543899735,46.35726467110496 C163.2725175817152,46.98185820737487 164.08571597018658,47.47495196077759 165.01513637299308,47.83655874493385 C165.94451573212177,48.19816552909012 166.93925030755167,48.37896892116825 167.99935378050873,48.37896892116825 C168.9578057447536,48.37896892116825 169.84362408049878,48.23761546395028 170.65684983142205,47.95490214270396 C171.47007558234532,47.672192024862824 172.23972662865913,47.2481316532089 172.96581665158942,46.68270821412145 C173.37242268643809,46.40657148372108 173.85164866856053,46.26192812937754 174.40346723550488,46.248781354496 C175.05696467361327,46.248781354496 175.59789298471173,46.442728318050484 176.02630689370403,46.830638262185374 C176.45469344024445,47.21854500291508 176.66888671351467,47.70834885919223 176.66888671351467,48.30007225485312 C176.66888671351467,48.87864567222729 176.42927372245344,49.38488299710636 175.95006142155694,49.818816263542175 C173.69915772426634,51.607126818596015 171.04895376677746,52.50127408760997 167.99935378050873,52.50127408760997 C164.6302834873843,52.50127408760997 161.7549823195534,51.423039936202684 159.37339555211224,49.26654280274144 C156.9918087846711,47.11005207609057 155.8010222415635,44.50651654557939 155.8010222415635,41.455865736293816 C155.8010222415635,38.40521172360306 156.9918087846711,35.80167619309188 159.37339555211224,33.64518226303582 C161.7549823195534,31.488685129574577 164.6302834873843,30.410454181572476 167.99935378050873,30.410454181572476 zM181.5926641596718,20.942961537830428 C182.217088992664,20.942961537830428 182.75076625401584,21.14348509223086 183.19369594372733,21.544540209544692 C183.6366119522129,21.945596928561116 183.85806995645567,22.435402386540858 183.85806995645567,23.013974202212438 L183.85806995645567,38.398651149783035 L196.88414302704336,30.726037643427816 C197.2471880385085,30.51564760105586 197.65378039213124,30.410454181572476 198.1039748128153,30.410454181572476 C198.423445119671,30.410454181572476 198.72114859606086,30.463050891314168 198.99707156075897,30.56824751420274 C199.2729671630052,30.673440933686123 199.51258015406643,30.821367778344865 199.7158968527167,31.012034454989333 C199.91919987014103,31.202701131633802 200.08255370782922,31.422951255166907 200.20601309068502,31.67278482558865 C200.32944511108894,31.922624802820764 200.3911611212909,32.185608351529226 200.3911611212909,32.46174508192959 C200.3911611212909,33.19810862852884 200.1007223758736,33.74379909167325 199.51985856626493,34.09883248838875 L190.39286648160237,39.46374493311916 L199.75947155732615,49.010132641473746 C200.18060705411995,49.43091592962284 200.3911611212909,49.910856501333654 200.3911611212909,50.449983187252855 C200.3911611212909,50.72611991765322 200.32944511108894,50.989103466361684 200.20601309068502,51.238937036783426 C200.08255370782922,51.488773810610354 199.91919987014103,51.70902393414346 199.7158968527167,51.89969061078793 C199.51258015406643,52.0903572874324 199.2729671630052,52.23828413209114 198.99707156075897,52.34348075497971 C198.72114859606086,52.44867417446309 198.423445119671,52.50127408760997 198.1039748128153,52.50127408760997 C197.49405207931636,52.50127408760997 196.9857808545296,52.32375738925222 196.57918850090687,51.96872719594191 L186.515566007369,41.73199605988381 L183.85806995645567,43.30991336916051 L183.85806995645567,50.43025982152537 C183.85806995645567,50.995680057207636 183.6366119522129,51.48220042316959 183.19369594372733,51.88983052962678 C182.75076625401584,52.29745743267878 182.217088992664,52.50127408760997 181.5926641596718,52.50127408760997 C180.95368250228262,52.50127408760997 180.4127678724101,52.29745743267878 179.9698381826986,51.88983052962678 C179.52692217421304,51.48220042316959 179.30546416997026,50.995680057207636 179.30546416997026,50.43025982152537 L179.30546416997026,23.013974202212438 C179.30546416997026,22.435402386540858 179.52692217421304,21.945596928561116 179.9698381826986,21.544540209544692 C180.4127678724101,21.14348509223086 180.95368250228262,20.942961537830428 181.5926641596718,20.942961537830428 zM215.05181234193174,30.410454181572476 C218.39183739239184,30.410454181572476 221.2671248789968,31.488685129574577 223.67777057032822,33.64518226303582 C224.86855711343583,34.71027924977713 225.76164018015356,35.896990310983 226.3570471329333,37.205353887515656 C226.95245408571304,38.51371746404831 227.25013019965104,39.93053872994844 227.25013019965104,41.455865736293816 C227.25013019965104,42.04758272514434 227.0286858766342,42.53738658142149 226.58576986814865,42.92529972896156 C226.14282649721122,43.31320326628608 225.60192554856462,43.50715022984056 224.96294389117543,43.50715022984056 L207.7110411156084,43.50715022984056 C207.9578914751903,44.230370204963464 208.32093648665546,44.89111416875241 208.8001624687779,45.48941095185407 C209.2793747696744,46.08770453155054 209.84208359246463,46.60052165068075 210.48831629960046,47.02787832627061 C211.13454900673628,47.45523179845529 211.8460958864955,47.787248728912544 212.62303902623376,48.02393552445275 C213.39996848474607,48.26062552339815 214.20954134834415,48.37896892116825 215.05181234193174,48.37896892116825 C216.01023694372475,48.37896892116825 216.88881791094923,48.24747554511143 217.68751419992736,47.98448879299778 C218.4862104889055,47.72150204088413 219.226816292555,47.32702511611885 219.9093589733277,46.80105161189155 C220.3450102508407,46.47231817174949 220.84600306342895,46.30137486083251 221.41236477354437,46.28823128935616 C222.06583484920088,46.28823128935616 222.60679052275123,46.48217825291064 223.0351633880657,46.87008499364035 C223.463577297058,47.25799493777524 223.67777057032822,47.747798794052386 223.67777057032822,48.33951898630809 C223.67777057032822,48.918092403682266 223.45992440973282,49.411186157084984 223.0243004946717,49.818816263542175 C220.7733967973811,51.607126818596015 218.11592810891966,52.50127408760997 215.05181234193174,52.50127408760997 C211.68271468635544,52.50127408760997 208.8074408809764,51.423039936202684 206.42584043230931,49.26654280274144 C204.0442673460941,47.11005207609057 202.8534808029865,44.50651654557939 202.8534808029865,41.455865736293816 C202.8534808029865,38.40521172360306 204.0442673460941,35.80167619309188 206.42584043230931,33.64518226303582 C208.8074408809764,31.488685129574577 211.68271468635544,30.410454181572476 215.05181234193174,30.410454181572476 zM241.95435612490132,30.410454181572476 C242.59332410106458,30.410454181572476 243.27946494425873,30.44990091302745 244.01280601693566,30.52879757934258 C244.74617445206445,30.60769424565771 245.42142503941272,30.749047702875686 246.03858514143235,30.95286115440169 C246.65579996835572,31.156677809332876 247.16766935556393,31.43609803004844 247.5742753904126,31.79113142676394 C247.98090878771313,32.14616482347944 248.18421180513747,32.60638523286795 248.18421180513747,33.17180546855022 C248.18421180513747,33.461092177237305 248.12248211370957,33.73065231679172 247.99905009330564,33.98048909061865 C247.87561807290172,34.230325864445575 247.71223687276165,34.450572784573495 247.50893385533732,34.64124266462315 C247.305630837913,34.83190613786243 247.06604520930364,34.979832982521174 246.79012224460553,35.085029605409744 C246.51419927990742,35.19022302489313 246.21649580351755,35.24282293804001 245.89701181543592,35.24282293804001 C245.62111621318968,35.24282293804001 245.30160486265618,35.17049965916564 244.93855985119103,35.025859508227285 C244.02369627278154,34.69712286468004 243.02896169735163,34.53275614460901 241.95435612490132,34.53275614460901 C240.8942252894924,34.53275614460901 239.89951807651437,34.71355953668714 238.97012503615974,35.07516632084341 C238.04073199580512,35.43677310499967 237.23113176975517,35.92986685840239 236.54135172046176,36.554466801482675 C235.85154430871648,37.17906033775259 235.30700415397064,37.91212437701071 234.90762180641673,38.75368134309335 C234.50829418376657,39.59524151258117 234.3086030099896,40.495958965630706 234.3086030099896,41.455865736293816 L234.3086030099896,50.449983187252855 C234.3086030099896,51.01540342293512 234.08715868697277,51.49863709517669 233.64424267848722,51.89969061078793 C233.20132667000166,52.30074732980435 232.66764940864982,52.50127408760997 232.04318353197982,52.50127408760997 C231.40424291826844,52.50127408760997 230.86331460716997,52.30074732980435 230.42037123623254,51.89969061078793 C229.977455227747,51.49863709517669 229.75603826718202,51.01540342293512 229.75603826718202,50.449983187252855 L229.75603826718202,32.46174508192959 C229.75603826718202,31.89632164284214 229.977455227747,31.41308797060057 230.42037123623254,31.012034454989333 C230.86331460716997,30.610980939378095 231.40424291826844,30.410454181572476 232.04318353197982,30.410454181572476 C232.66764940864982,30.410454181572476 233.20132667000166,30.610980939378095 233.64424267848722,31.012034454989333 C234.08715868697277,31.41308797060057 234.3086030099896,31.89632164284214 234.3086030099896,32.46174508192959 L234.3086030099896,32.85622200669488 C235.39776540683692,32.067261750353936 236.58127353774603,31.46239798662188 237.85920949007254,31.041621105283156 C239.1371180799472,30.620841020539245 240.50214871658886,30.410454181572476 241.95435612490132,30.410454181572476 zM114.063583144419,34.53275614460901 C112.98896389074275,34.53275614460901 111.98696458434029,34.71684943381271 111.05757154398566,35.085029605409744 C110.12815798179213,35.45321298041196 109.32221064306736,35.94959022412988 108.63967480290762,36.574186963804976 C107.95715264397381,37.198783703480075 107.41621749226238,37.9318477427382 107.01686934777331,38.77340791222602 C106.61752120328424,39.61496808171384 106.41783687012025,40.509108943917425 106.41783687012025,41.455865736293816 C106.41783687012025,42.402616121859836 106.61752120328424,43.29676018746861 107.01686934777331,44.13832035695643 C107.41621749226238,44.97988052644425 107.95715264397381,45.71294456570237 108.63967480290762,46.337538101972285 C109.32221064306736,46.962134841647384 110.12815798179213,47.458515288770485 111.05757154398566,47.8266986637727 C111.98696458434029,48.194878835369735 112.98896389074275,48.37896892116825 114.063583144419,48.37896892116825 C115.12368661737605,48.37896892116825 116.11842119280595,48.194878835369735 117.04781423316058,47.8266986637727 C117.97722095474114,47.458515288770485 118.78679381833922,46.958844944521815 119.47658754885856,46.327678020811135 C120.1663812793779,45.69650789369527 120.71094879657562,44.96344065103196 121.11029010045172,44.12845707239009 C121.50964508555376,43.29347349374822 121.70932257810477,42.402616121859836 121.70932257810477,41.455865736293816 C121.70932257810477,40.509108943917425 121.50964508555376,39.61825157202904 121.11029010045172,38.783271196792356 C120.71094879657562,37.9482844147453 120.1663812793779,37.21521717208199 119.47658754885856,36.58404704496613 C118.78679381833922,35.95288012125545 117.97722095474114,35.45321298041196 117.04781423316058,35.085029605409744 C116.11842119280595,34.71684943381271 115.12368661737605,34.53275614460901 114.063583144419,34.53275614460901 zM141.05326265538156,34.53275614460901 C139.97862972047938,34.53275614460901 138.97664409530285,34.71684943381271 138.04723737372228,35.085029605409744 C137.11783065214172,35.45321298041196 136.31188331341696,35.94959022412988 135.62935431387018,36.574186963804976 C134.9468253143234,37.198783703480075 134.40589700322494,37.9318477427382 134.0065420181229,38.77340791222602 C133.60718703302086,39.61496808171384 133.40750954046985,40.509108943917425 133.40750954046985,41.455865736293816 C133.40750954046985,42.402616121859836 133.60718703302086,43.29676018746861 134.0065420181229,44.13832035695643 C134.40589700322494,44.97988052644425 134.9468253143234,45.71294456570237 135.62935431387018,46.337538101972285 C136.31188331341696,46.962134841647384 137.11783065214172,47.458515288770485 138.04723737372228,47.8266986637727 C138.97664409530285,48.194878835369735 139.97862972047938,48.37896892116825 141.05326265538156,48.37896892116825 C142.11333876588674,48.37896892116825 143.10808702254258,48.194878835369735 144.03749374412314,47.8266986637727 C144.96688678447777,47.458515288770485 145.77645964807584,46.958844944521815 146.46625337859518,46.327678020811135 C147.15604710911452,45.69650789369527 147.70061462631224,44.96344065103196 148.09995593018834,44.12845707239009 C148.49932459651632,43.29347349374822 148.6989884078414,42.402616121859836 148.6989884078414,41.455865736293816 C148.6989884078414,40.509108943917425 148.49932459651632,39.61825157202904 148.09995593018834,38.783271196792356 C147.70061462631224,37.9482844147453 147.15604710911452,37.21521717208199 146.46625337859518,36.58404704496613 C145.77645964807584,35.95288012125545 144.96688678447777,35.45321298041196 144.03749374412314,35.085029605409744 C143.10808702254258,34.71684943381271 142.11333876588674,34.53275614460901 141.05326265538156,34.53275614460901 zM215.05181234193174,34.53275614460901 C214.22405712906334,34.53275614460901 213.41810979033858,34.6511027457843 212.63392928207963,34.88778954132451 C211.8497487738207,35.12447633686472 211.13092348186296,35.456493267321974 210.4774397249805,35.88384994291184 C209.823969649324,36.311203415096514 209.25759425798265,36.82402053422672 208.77838195708614,37.42231731732838 C208.2991559749637,38.02061089702485 207.94337569447111,38.68135806421898 207.7110411156084,39.404571632531514 L222.39258356825508,39.404571632531514 C222.14571952744723,38.68135806421898 221.77903530988283,38.02061089702485 221.29255827801376,37.42231731732838 C220.8060812461447,36.82402053422672 220.23971953602927,36.311203415096514 219.59351419134532,35.88384994291184 C218.9472814842095,35.456493267321974 218.2357072419984,35.12447633686472 217.45879146471202,34.88778954132451 C216.68188936865158,34.6511027457843 215.87956755480013,34.53275614460901 215.05181234193174,34.53275614460901 zM23.823952669280402,24.493516539943215 L23.823952669280402,31.957923124560438 L15.111407672081668,31.957923124560438 L15.111407672081668,24.493516539943215 L23.823952669280402,24.493516539943215 zM34.120588672518124,24.493516539943215 L34.120588672518124,31.957923124560438 L25.40805051593236,31.957923124560438 L25.40805051593236,24.493516539943215 L34.120588672518124,24.493516539943215 zM44.41723664682854,24.493516539943215 L44.41723664682854,31.957923124560438 L35.70469335978305,31.957923124560438 L35.70469335978305,24.493516539943215 L44.41723664682854,24.493516539943215 zM54.71388462113896,24.493516539943215 L54.71388462113896,31.957923124560438 L46.00133791378698,31.957923124560438 L46.00133791378698,24.493516539943215 L54.71388462113896,24.493516539943215 zM65.01051891422344,24.493516539943215 L65.01051891422344,31.957923124560438 L56.29797904748443,31.957923124560438 L56.29797904748443,24.493516539943215 L65.01051891422344,24.493516539943215 zM54.71388462113896,15.536231841807734 L54.71388462113896,23.000636824722363 L46.00133791378698,23.000636824722363 L46.00133791378698,15.536231841807734 L54.71388462113896,15.536231841807734 zM44.41723664682854,15.536231841807734 L44.41723664682854,23.000636824722363 L35.70469335978305,23.000636824722363 L35.70469335978305,15.536231841807734 L44.41723664682854,15.536231841807734 zM34.120588672518124,15.536231841807734 L34.120588672518124,23.000636824722363 L25.40805051593236,23.000636824722363 L25.40805051593236,15.536231841807734 L34.120588672518124,15.536231841807734 zM54.71388462113896,6.5789475440979 L54.71388462113896,14.043352126586882 L46.00133791378698,14.043352126586882 L46.00133791378698,6.5789475440979 L54.71388462113896,6.5789475440979 z" fill="#ffffff" id="svg_2" transform="" stroke="#ffffff" stroke-opacity="1" fill-opacity="1"/>
    </g></g></svg>